<svg width="458" height="458" xmlns="http://www.w3.org/2000/svg">
 <!-- Created with Method Draw - http://github.com/duopixel/Method-Draw/ -->

 <g>
  <title>background</title>
  <rect fill="none" id="canvas_background" height="460" width="460" y="-1" x="-1"/>
  <g display="none" overflow="visible" y="0" x="0" height="100%" width="100%" id="canvasGrid">
   <rect fill="url(#gridpattern)" stroke-width="0" y="0" x="0" height="100%" width="100%"/>
  </g>
 </g>
 <g>
  <title>Layer 1</title>
  <g stroke="null" id="svg_5">
   <path stroke="null" id="svg_4" fill="#A13941" d="m78.921049,231.593284l-37.454538,30.258724c0.240068,27.44416 0.840537,51.252827 1.80081,71.424815c0.240068,4.92586 -1.320673,9.264918 -4.681929,13.018364c-3.121187,3.518429 -7.202647,5.394409 -12.244678,5.629426c-5.041734,0.235017 -9.483594,-1.172413 -13.324986,-4.221996c-3.601621,-3.283411 -5.522168,-7.388938 -5.762237,-12.314797c-0.720502,-14.073715 -1.200639,-27.912412 -1.440708,-41.517874c-0.240068,-16.888576 -0.360103,-34.128936 -0.360103,-51.72108c0,-17.59244 -0.120034,-31.314372 -0.360103,-41.166091c0,-6.09857 -0.480137,-18.647791 -1.440708,-37.647662c-0.960274,-19.234295 -1.320376,-34.59808 -1.080308,-46.091653c0,-4.92586 1.80081,-9.030792 5.402134,-12.314797c3.601324,-3.283708 7.92315,-4.92586 12.965181,-4.92586c5.041734,0 9.243229,1.759511 12.604781,5.27794c3.361255,3.518429 5.041734,7.740424 5.041734,12.666284c-0.240068,11.25915 0.120034,26.271152 1.080605,45.036303c0.960274,18.765151 1.440411,31.197012 1.440411,37.295582c0,5.16058 0.120034,10.672646 0.360103,16.536793c37.694606,-30.727868 76.829623,-67.671666 117.405645,-110.831395c3.360661,-3.518429 7.56275,-5.395003 12.604781,-5.629426c5.042031,-0.23472 9.36356,1.290071 12.965181,4.573779c3.601324,3.284005 5.521574,7.388938 5.762237,12.314797c0.23888,4.92586 -1.321268,9.147855 -4.681929,12.666284c-26.890933,29.086014 -53.420871,55.239806 -79.591004,78.461673l92.555888,115.053687c3.120295,3.753446 4.321826,8.092505 3.601621,13.018364c-0.481325,4.690842 -2.642238,8.561054 -6.482739,11.610933c-3.841986,3.049879 -8.282955,4.221996 -13.324986,3.518429c-4.802854,-0.468549 -8.76428,-2.579844 -11.884576,-6.33329l-91.47558,-113.646256zm169.097013,85.146746c4.321529,3.987275 6.482442,8.796072 6.482442,14.425795c0,5.394409 -2.041176,10.086737 -6.122339,14.073715c-4.082649,3.987275 -9.003458,5.981507 -14.765694,5.981507c-5.762237,0 -10.684531,-1.994232 -14.765694,-5.981507c-3.841986,-3.986978 -5.762237,-8.679306 -5.762237,-14.073715c0,-5.629724 1.92025,-10.43852 5.762237,-14.425795c4.081163,-3.986978 9.003458,-5.98121 14.765694,-5.98121c5.762237,0 10.563605,1.994232 14.405591,5.98121z"/>
  </g>
  <path stroke="null" id="svg_9" fill="#FAA75B" d="m294.86745,337.065376c0,4.896342 -1.789751,8.976073 -5.369622,12.241039c-3.579871,3.264597 -7.875937,4.896342 -12.887461,4.896342c-5.011893,0 -9.189455,-1.748773 -12.529732,-5.246318c-3.341754,-3.497176 -5.011524,-7.694304 -5.011524,-12.590646c0.475864,-21.451537 0.118135,-55.841481 -1.074294,-103.174262c-1.193536,-47.564991 -1.313518,-85.103981 -0.357729,-112.61697c0.238117,-4.663394 2.147849,-8.626835 5.727719,-11.891432c3.579871,-3.497176 7.755587,-5.12929 12.529363,-4.896342c5.011893,0.233317 9.187978,2.098379 12.529732,5.595925c3.579871,3.497545 5.24964,7.694304 5.011893,12.590646c-0.716196,24.948344 -0.716196,54.443423 0,88.485237c56.321775,-1.865431 97.610086,-2.681304 123.863088,-2.448356c-0.239962,-31.710117 0.357729,-60.622272 1.789751,-86.736095c0.238117,-4.896711 2.147849,-8.860522 5.727719,-11.891432c3.817987,-3.264228 8.233666,-4.779683 13.245559,-4.546735c5.011893,0.233317 9.067628,2.215038 12.171635,5.945901c3.339908,3.497176 4.891912,7.694304 4.653795,12.590646c-1.193906,27.280041 -1.910101,50.479612 -2.147849,69.598714c0,23.082913 0.237747,49.081185 0.715826,77.992601c0.715826,28.678837 1.073924,50.595532 1.073924,65.751931c0,4.896342 -1.789751,9.093101 -5.369622,12.590646c-3.341754,3.264597 -7.517839,4.896342 -12.529732,4.896342c-5.011893,0 -9.30759,-1.631745 -12.887461,-4.896342c-3.341754,-3.497545 -5.011893,-7.694304 -5.011893,-12.590646c0,-8.161308 -0.357729,-39.404052 -1.073924,-93.731185c-25.774922,-0.232579 -66.943252,0.582186 -123.50499,2.447986c0.953943,39.404052 1.19206,69.94869 0.715826,91.632806zm206.717328,-17.487357c4.295697,3.964549 6.443546,8.743863 6.443546,14.339788c0,5.362977 -2.029713,10.025263 -6.085448,13.989443c-4.05795,3.964549 -8.949862,5.945901 -14.677581,5.945901c-5.727719,0 -10.621477,-1.981352 -14.677581,-5.945901c-3.819464,-3.96418 -5.727719,-8.626466 -5.727719,-13.989443c0,-5.595925 1.908255,-10.375239 5.727719,-14.339788c4.056104,-3.96418 8.949862,-5.945532 14.677581,-5.945532c5.727719,0 10.49965,1.981352 14.319483,5.945532z"/>
 </g>
</svg>