<svg width="16" height="9" viewBox="0 0 16 9" fill="none" xmlns="http://www.w3.org/2000/svg">
<path d="M2.81061 4.48815L1.55 5.50657C1.55808 6.43026 1.57829 7.23159 1.61061 7.91052C1.61869 8.07631 1.56616 8.22235 1.45303 8.34868C1.34798 8.4671 1.21061 8.53024 1.04091 8.53815C0.871216 8.54606 0.721718 8.49869 0.592429 8.39605C0.471215 8.28554 0.406568 8.14736 0.398487 7.98157C0.374245 7.50789 0.358083 7.04212 0.350002 6.5842C0.341922 6.01578 0.337881 5.43552 0.337881 4.84342C0.337881 4.25131 0.333841 3.78947 0.32576 3.45789C0.32576 3.25263 0.309598 2.83026 0.277275 2.19078C0.244952 1.54341 0.232831 1.02631 0.240912 0.639468C0.240912 0.473678 0.301518 0.33552 0.42273 0.224994C0.543944 0.114467 0.689398 0.0592041 0.859095 0.0592041C1.02879 0.0592041 1.1702 0.118415 1.28334 0.236836C1.39647 0.355257 1.45303 0.497362 1.45303 0.663152C1.44495 1.0421 1.45707 1.54736 1.4894 2.17894C1.52172 2.81052 1.53788 3.22894 1.53788 3.4342C1.53788 3.60789 1.54192 3.79341 1.55 3.99078C2.81869 2.95657 4.13586 1.71315 5.50153 0.26052C5.61464 0.142099 5.75607 0.0789406 5.92577 0.0710462C6.09547 0.0631513 6.24092 0.114467 6.36214 0.224994C6.48335 0.33552 6.54798 0.473678 6.55608 0.639468C6.56412 0.805257 6.51161 0.947362 6.3985 1.06578C5.49343 2.04473 4.60051 2.92499 3.7197 3.70657L6.83486 7.57894C6.93988 7.70527 6.98032 7.85131 6.95608 8.0171C6.93988 8.17498 6.86715 8.30524 6.73789 8.40789C6.60858 8.51054 6.45911 8.54999 6.28941 8.52631C6.12776 8.51054 5.99443 8.43948 5.88941 8.31315L2.81061 4.48815ZM8.50192 7.35394C8.64737 7.48814 8.7201 7.64999 8.7201 7.83947C8.7201 8.02103 8.6514 8.17896 8.51404 8.31315C8.37663 8.44735 8.21101 8.51447 8.01707 8.51447C7.82313 8.51447 7.65746 8.44735 7.5201 8.31315C7.39079 8.17896 7.32616 8.02103 7.32616 7.83947C7.32616 7.64999 7.39079 7.48814 7.5201 7.35394C7.65746 7.21975 7.82313 7.15263 8.01707 7.15263C8.21101 7.15263 8.37261 7.21975 8.50192 7.35394Z" fill="#A13941"/>
</svg>
