<svg width="117" height="53" viewBox="0 0 117 53" fill="none" xmlns="http://www.w3.org/2000/svg">
<path d="M21.7589 15.36L17.5989 18.8C17.6256 21.92 17.6922 24.6267 17.7989 26.92C17.8256 27.48 17.6522 27.9733 17.2789 28.4C16.9322 28.8 16.4789 29.0133 15.9189 29.04C15.3589 29.0667 14.8656 28.9067 14.4389 28.56C14.0389 28.1867 13.8256 27.72 13.7989 27.16C13.7189 25.56 13.6656 23.9867 13.6389 22.44C13.6122 20.52 13.5989 18.56 13.5989 16.56C13.5989 14.56 13.5856 13 13.5589 11.88C13.5589 11.1867 13.5056 9.76 13.3989 7.6C13.2922 5.41333 13.2522 3.66667 13.2789 2.36C13.2789 1.8 13.4789 1.33333 13.8789 0.959999C14.2789 0.586665 14.7589 0.399999 15.3189 0.399999C15.8789 0.399999 16.3456 0.599998 16.7189 0.999998C17.0922 1.4 17.2789 1.88 17.2789 2.44C17.2522 3.72 17.2922 5.42666 17.3989 7.56C17.5056 9.69333 17.5589 11.1067 17.5589 11.8C17.5589 12.3867 17.5722 13.0133 17.5989 13.68C21.7856 10.1867 26.1322 5.98667 30.6389 1.08C31.0122 0.679998 31.4789 0.466664 32.0389 0.439998C32.5989 0.413332 33.0789 0.586665 33.4789 0.959999C33.8789 1.33333 34.0922 1.8 34.1189 2.36C34.1456 2.92 33.9722 3.4 33.5989 3.8C30.6122 7.10666 27.6656 10.08 24.7589 12.72L35.0389 25.8C35.3856 26.2267 35.5189 26.72 35.4389 27.28C35.3856 27.8133 35.1456 28.2533 34.7189 28.6C34.2922 28.9467 33.7989 29.08 33.2389 29C32.7056 28.9467 32.2656 28.7067 31.9189 28.28L21.7589 15.36ZM47.7402 29.2C45.7668 29.0667 44.0468 28.6667 42.5802 28C41.1135 27.3333 39.9935 26.4933 39.2202 25.48C38.4468 24.4667 37.8868 23.5333 37.5402 22.68C37.1935 21.8267 36.9802 20.9867 36.9002 20.16C36.8202 19.3067 36.8602 18.2133 37.0202 16.88C37.2068 15.76 37.5935 14.6533 38.1802 13.56C38.7935 12.4667 39.5935 11.4933 40.5802 10.64C41.5935 9.76 42.8068 9.09333 44.2202 8.64C45.6335 8.16 47.1402 8.01333 48.7402 8.2C50.2868 8.38667 51.6068 8.81333 52.7002 9.48C53.7935 10.12 54.7268 10.9467 55.5002 11.96C56.1668 12.8133 56.5668 13.4533 56.7002 13.88C56.8602 14.3067 56.9935 14.7067 57.1002 15.08C57.2335 15.4533 57.3402 15.7733 57.4202 16.04C57.5002 16.3067 57.5668 16.5867 57.6202 16.88C57.7002 17.1467 57.7535 17.4667 57.7802 17.84C57.8068 18.3467 57.7135 18.8133 57.5002 19.24C57.2868 19.6667 56.9668 20 56.5402 20.24C56.1935 20.3733 55.8202 20.44 55.4202 20.44L48.5802 20.56C43.7802 20.5867 41.3802 20.64 41.3802 20.72H41.2602C41.6068 22.08 42.3268 23.1467 43.4202 23.92C44.5402 24.6933 46.0602 25.1467 47.9802 25.28C49.0202 25.3333 49.8868 25.28 50.5802 25.12C51.3535 24.9067 51.9135 24.72 52.2602 24.56C52.6068 24.3733 53.0335 24.1333 53.5402 23.84C54.0468 23.6533 54.5535 23.68 55.0602 23.92C55.5668 24.16 55.9135 24.5333 56.1002 25.04C56.2868 25.5467 56.2602 26.04 56.0202 26.52C55.8068 27 55.4602 27.3733 54.9802 27.64C54.5535 27.88 54.1135 28.0933 53.6602 28.28C53.2068 28.44 52.5402 28.64 51.6602 28.88C50.7802 29.12 49.4735 29.2267 47.7402 29.2ZM41.3402 16.8C42.8868 16.72 46.9002 16.64 53.3802 16.56C53.1402 15.76 52.7535 15 52.2202 14.28C51.1535 13.0533 49.8335 12.3467 48.2602 12.16C46.6068 11.9467 45.1535 12.3067 43.9002 13.24C42.6468 14.1467 41.7935 15.3333 41.3402 16.8ZM61.8111 27.08C61.7578 25.08 61.7578 22.0133 61.8111 17.88C61.8911 13.7467 61.9311 11.04 61.9311 9.76C61.9311 9.2 62.1178 8.73333 62.4911 8.36C62.8911 7.96 63.3711 7.76 63.9311 7.76C64.4911 7.76 64.9578 7.96 65.3311 8.36C65.7311 8.73333 65.9311 9.2 65.9311 9.76C65.9311 11.04 65.8911 13.7333 65.8111 17.84C65.7578 21.9467 65.7578 25 65.8111 27C65.8111 27.56 65.6244 28.04 65.2511 28.44C64.8778 28.84 64.4111 29.04 63.8511 29.04C63.2911 29.04 62.8111 28.8533 62.4111 28.48C62.0111 28.1067 61.8111 27.64 61.8111 27.08ZM65.5311 0.839998C65.9844 1.29333 66.2111 1.85333 66.2111 2.52C66.2111 3.18667 65.9844 3.74667 65.5311 4.2C65.0778 4.65333 64.5178 4.88 63.8511 4.88C63.1844 4.88 62.6244 4.65333 62.1711 4.2C61.7178 3.74667 61.4911 3.18667 61.4911 2.52C61.4911 1.85333 61.7178 1.29333 62.1711 0.839998C62.6244 0.386666 63.1844 0.159999 63.8511 0.159999C64.5444 0.133331 65.1044 0.359998 65.5311 0.839998ZM79.3861 28.88C79.2261 28.8267 78.8928 28.7467 78.3861 28.64C77.9061 28.5333 77.4794 28.4133 77.1061 28.28C76.7594 28.1467 76.3461 27.96 75.8661 27.72C75.4128 27.4533 74.9994 27.1067 74.6261 26.68C74.2528 26.2267 73.9328 25.6933 73.6661 25.08C73.3728 24.36 73.1861 22.9467 73.1061 20.84C73.0261 19.2133 73.0128 17.12 73.0661 14.56C73.0661 14.08 73.0794 13.28 73.1061 12.16L72.7861 12.2C72.2261 12.2533 71.7328 12.1067 71.3061 11.76C70.8794 11.4133 70.6261 10.9733 70.5461 10.44C70.4928 9.88 70.6394 9.38667 70.9861 8.96C71.3328 8.53333 71.7728 8.28 72.3061 8.2L73.2261 8.12C73.2528 6.70667 73.2928 5.28 73.3461 3.84C73.3728 3.28 73.5861 2.81333 73.9861 2.44C74.3861 2.06667 74.8661 1.89333 75.4261 1.92C75.9861 1.94666 76.4528 2.16 76.8261 2.56C77.1994 2.96 77.3728 3.44 77.3461 4L77.2261 7.8L78.5461 7.72C79.1061 7.69333 79.5861 7.85333 79.9861 8.2C80.4128 8.54667 80.6394 9 80.6661 9.56C80.7194 10.12 80.5728 10.6133 80.2261 11.04C79.8794 11.44 79.4261 11.6667 78.8661 11.72L77.1061 11.8C77.0794 13.08 77.0661 14.0133 77.0661 14.6C77.0128 17.1067 77.0261 19.1467 77.1061 20.72C77.1594 22.32 77.2394 23.24 77.3461 23.48C77.4528 23.72 77.5328 23.8933 77.5861 24C77.6394 24.08 77.7328 24.1733 77.8661 24.28C78.0261 24.36 78.1861 24.4133 78.3461 24.44C78.5061 24.4667 78.7994 24.5467 79.2261 24.68C79.6794 24.7867 80.1594 24.9333 80.6661 25.12C81.1728 25.28 81.5461 25.6133 81.7861 26.12C82.0528 26.6 82.0928 27.1067 81.9061 27.64C81.7461 28.1467 81.4128 28.5333 80.9061 28.8C80.4261 29.04 79.9194 29.0667 79.3861 28.88ZM103.812 27.08C103.785 27.64 103.572 28.1067 103.172 28.48C102.772 28.8533 102.292 29.0267 101.732 29C101.198 29 100.745 28.8 100.372 28.4C99.9984 28 99.8117 27.5333 99.8117 27C99.8117 26.9733 99.8917 25.72 100.052 23.24C100.212 20.52 100.238 18.4533 100.132 17.04C99.8917 13.7067 98.6651 11.96 96.4517 11.8C95.2784 11.72 94.305 11.9067 93.5317 12.36C92.785 12.7867 92.0517 13.5467 91.3317 14.64C91.2784 14.72 91.1717 14.9067 91.0117 15.2C91.1984 20.96 91.2917 24.9067 91.2917 27.04C91.2917 27.6 91.0917 28.08 90.6917 28.48C90.3184 28.8533 89.8517 29.04 89.2917 29.04C88.7317 29.04 88.2517 28.8533 87.8517 28.48C87.4784 28.08 87.2917 27.6 87.2917 27.04C87.2917 25.8133 87.185 21.6667 86.9717 14.6C86.8117 9.29333 86.785 5.08 86.8917 1.96C86.9184 1.42666 87.1317 0.973332 87.5317 0.599998C87.9317 0.199999 88.3984 0.0133322 88.9317 0.0399985C89.4917 0.0666649 89.9584 0.279999 90.3317 0.68C90.7317 1.08 90.9184 1.56 90.8917 2.12C90.865 2.84 90.8517 5.62667 90.8517 10.48C92.5584 8.50667 94.5584 7.61333 96.8517 7.8C101.278 8.17333 103.705 11.1467 104.132 16.72C104.212 18.2667 104.225 19.6133 104.172 20.76C104.145 21.9067 104.078 23.1733 103.972 24.56C103.865 25.9467 103.812 26.7867 103.812 27.08Z" fill="#A13941"/>
<path d="M3.38781 50.53C3.38781 50.95 3.23781 51.3 2.93781 51.58C2.63781 51.86 2.27781 52 1.85781 52C1.43781 52 1.08781 51.85 0.807813 51.55C0.527813 51.25 0.387813 50.89 0.387813 50.47C0.427813 48.63 0.397813 45.68 0.297813 41.62C0.197813 37.54 0.187813 34.32 0.267813 31.96C0.287813 31.56 0.447813 31.22 0.747813 30.94C1.04781 30.64 1.39781 30.5 1.79781 30.52C2.21781 30.54 2.56781 30.7 2.84781 31C3.14781 31.3 3.28781 31.66 3.26781 32.08C3.20781 34.22 3.20781 36.75 3.26781 39.67C7.98781 39.51 11.4478 39.44 13.6478 39.46C13.6278 36.74 13.6778 34.26 13.7978 32.02C13.8178 31.6 13.9778 31.26 14.2778 31C14.5978 30.72 14.9678 30.59 15.3878 30.61C15.8078 30.63 16.1478 30.8 16.4078 31.12C16.6878 31.42 16.8178 31.78 16.7978 32.2C16.6978 34.54 16.6378 36.53 16.6178 38.17C16.6178 40.15 16.6378 42.38 16.6778 44.86C16.7378 47.32 16.7678 49.2 16.7678 50.5C16.7678 50.92 16.6178 51.28 16.3178 51.58C16.0378 51.86 15.6878 52 15.2678 52C14.8478 52 14.4878 51.86 14.1878 51.58C13.9078 51.28 13.7678 50.92 13.7678 50.5C13.7678 49.8 13.7378 47.12 13.6778 42.46C11.5178 42.44 8.06781 42.51 3.32781 42.67C3.40781 46.05 3.42781 48.67 3.38781 50.53ZM29.7412 51.52C29.0212 51.8 28.2012 51.96 27.2812 52C26.3812 52.04 25.5412 51.94 24.7612 51.7C23.9812 51.44 23.2912 51.05 22.6912 50.53C21.6512 49.67 20.9812 48.6 20.6812 47.32C20.3812 46.04 20.3712 44.89 20.6512 43.87C20.9312 42.85 21.3512 41.86 21.9112 40.9C22.4912 39.92 23.1112 39.1 23.7712 38.44C24.4512 37.76 25.2312 37.19 26.1112 36.73C26.9912 36.27 27.9112 36.05 28.8712 36.07C29.8312 36.07 30.8412 36.33 31.9012 36.85C32.0612 36.93 32.2312 37.05 32.4112 37.21C32.6112 37.37 32.7812 37.51 32.9212 37.63L33.3112 38.02C33.4312 38.14 33.4912 38.21 33.4912 38.23C33.8112 38.51 33.9812 38.87 34.0012 39.31C34.2612 40.51 34.4312 41.77 34.5112 43.09C34.5912 44.41 34.6112 45.65 34.5712 46.81C34.5512 47.97 34.5712 49.2 34.6312 50.5C34.6512 50.9 34.5212 51.25 34.2412 51.55C33.9612 51.85 33.6112 52.01 33.1912 52.03C32.7712 52.05 32.4112 51.92 32.1112 51.64C31.8112 51.36 31.6512 51.02 31.6312 50.62V50.17C31.0312 50.79 30.4012 51.24 29.7412 51.52ZM28.3912 48.82C28.6912 48.74 28.9312 48.66 29.1112 48.58C29.2912 48.5 29.5112 48.38 29.7712 48.22C30.0512 48.06 30.3412 47.86 30.6412 47.62C30.9412 47.38 31.2112 47.08 31.4512 46.72C31.4912 46.68 31.5412 46.64 31.6012 46.6C31.6012 43.9 31.4312 41.73 31.0912 40.09C31.0312 40.01 30.9612 39.94 30.8812 39.88C30.8212 39.8 30.7712 39.74 30.7312 39.7C30.7112 39.66 30.6712 39.63 30.6112 39.61C30.5712 39.57 30.5212 39.53 30.4612 39.49C29.5012 38.97 28.4912 38.96 27.4312 39.46C26.3712 39.94 25.4412 40.85 24.6412 42.19C23.8412 43.55 23.4412 44.74 23.4412 45.76C23.4612 46.76 23.8512 47.59 24.6112 48.25C25.0712 48.63 25.6412 48.87 26.3212 48.97C27.0012 49.07 27.6912 49.02 28.3912 48.82ZM40.7334 52C40.3334 52 39.9834 51.87 39.6834 51.61C39.3834 51.33 39.2334 50.96 39.2334 50.5L39.1734 44.38C39.1534 43 39.1434 41.28 39.1434 39.22V37.45C39.1434 36.99 39.2834 36.63 39.5634 36.37C39.8434 36.11 40.1834 35.98 40.5834 35.98C41.0034 35.98 41.3634 36.12 41.6634 36.4C41.9834 36.66 42.1434 37.03 42.1434 37.51V38.41C42.3634 37.93 42.7734 37.52 43.3734 37.18C44.1934 36.68 45.0934 36.43 46.0734 36.43C46.8134 36.43 47.3834 36.55 47.7834 36.79C48.1834 37.03 48.3834 37.46 48.3834 38.08C48.3834 38.48 48.2634 38.82 48.0234 39.1C47.7834 39.36 47.4334 39.49 46.9734 39.49C45.2934 39.49 44.1334 39.72 43.4934 40.18C43.1334 40.42 42.8134 40.71 42.5334 41.05C42.2734 41.39 42.1434 41.72 42.1434 42.04L42.2034 45.79L42.2334 50.5C42.2334 50.96 42.0834 51.33 41.7834 51.61C41.4834 51.87 41.1334 52 40.7334 52ZM52.9232 52C52.5232 52 52.1732 51.87 51.8732 51.61C51.5732 51.33 51.4232 50.96 51.4232 50.5L51.3632 44.38C51.3432 43 51.3332 41.28 51.3332 39.22V37.45C51.3332 36.99 51.4732 36.63 51.7532 36.37C52.0332 36.11 52.3732 35.98 52.7732 35.98C53.1932 35.98 53.5532 36.12 53.8532 36.4C54.1732 36.66 54.3332 37.03 54.3332 37.51V38.41C54.5532 37.93 54.9632 37.52 55.5632 37.18C56.3832 36.68 57.2832 36.43 58.2632 36.43C59.0032 36.43 59.5732 36.55 59.9732 36.79C60.3732 37.03 60.5732 37.46 60.5732 38.08C60.5732 38.48 60.4532 38.82 60.2132 39.1C59.9732 39.36 59.6232 39.49 59.1632 39.49C57.4832 39.49 56.3232 39.72 55.6832 40.18C55.3232 40.42 55.0032 40.71 54.7232 41.05C54.4632 41.39 54.3332 41.72 54.3332 42.04L54.3932 45.79L54.4232 50.5C54.4232 50.96 54.2732 51.33 53.9732 51.61C53.6732 51.87 53.3232 52 52.9232 52ZM63.253 50.56C63.213 49.06 63.213 46.76 63.253 43.66C63.313 40.56 63.343 38.53 63.343 37.57C63.343 37.15 63.483 36.8 63.763 36.52C64.063 36.22 64.423 36.07 64.843 36.07C65.263 36.07 65.613 36.22 65.893 36.52C66.193 36.8 66.343 37.15 66.343 37.57C66.343 38.53 66.313 40.55 66.253 43.63C66.213 46.71 66.213 49 66.253 50.5C66.253 50.92 66.113 51.28 65.833 51.58C65.553 51.88 65.203 52.03 64.783 52.03C64.363 52.03 64.003 51.89 63.703 51.61C63.403 51.33 63.253 50.98 63.253 50.56ZM66.043 30.88C66.383 31.22 66.553 31.64 66.553 32.14C66.553 32.64 66.383 33.06 66.043 33.4C65.703 33.74 65.283 33.91 64.783 33.91C64.283 33.91 63.863 33.74 63.523 33.4C63.183 33.06 63.013 32.64 63.013 32.14C63.013 31.64 63.183 31.22 63.523 30.88C63.863 30.54 64.283 30.37 64.783 30.37C65.303 30.35 65.723 30.52 66.043 30.88ZM74.2143 52C72.7343 51.74 71.6643 51.14 71.0043 50.2C70.6843 49.78 70.4543 49.22 70.3143 48.52L70.1943 47.86C70.1543 47.66 70.1143 47.5 70.0743 47.38C69.9543 47 69.9943 46.63 70.1943 46.27C70.3943 45.91 70.6943 45.68 71.0943 45.58C71.4943 45.48 71.8743 45.52 72.2343 45.7C72.5943 45.88 72.8343 46.17 72.9543 46.57C73.0143 46.79 73.0743 47.04 73.1343 47.32C73.1543 47.42 73.1643 47.52 73.1643 47.62C73.1843 47.7 73.2243 47.85 73.2843 48.07C73.3443 48.33 73.4843 48.55 73.7043 48.73C73.9443 48.95 74.3043 49.09 74.7843 49.15C75.5843 49.31 76.4443 49.29 77.3643 49.09C78.2643 48.89 78.9643 48.6 79.4643 48.22C79.8243 47.9 79.9743 47.57 79.9143 47.23C79.8543 46.67 79.5043 46.25 78.8643 45.97C78.4643 45.79 77.4243 45.55 75.7443 45.25C74.0043 44.91 72.7743 44.47 72.0543 43.93C70.7343 42.95 70.3043 41.49 70.7643 39.55C71.0443 38.43 71.6143 37.61 72.4743 37.09C73.3543 36.55 74.3243 36.25 75.3843 36.19C76.2843 36.15 77.1943 36.26 78.1143 36.52C79.0543 36.76 79.8543 37.1 80.5143 37.54C80.7343 37.7 80.9643 37.89 81.2043 38.11C81.4443 38.33 81.6743 38.57 81.8943 38.83C82.1343 39.09 82.2743 39.23 82.3143 39.25C82.6143 39.55 82.7643 39.9 82.7643 40.3C82.7643 40.68 82.6143 41.02 82.3143 41.32C82.0343 41.6 81.6843 41.74 81.2643 41.74C80.8643 41.74 80.5143 41.6 80.2143 41.32C80.0143 41.14 79.8143 40.95 79.6143 40.75L79.1943 40.24C79.0743 40.14 78.9343 40.04 78.7743 39.94C78.3943 39.7 77.9043 39.5 77.3043 39.34C76.7043 39.16 76.1143 39.08 75.5343 39.1C74.4743 39.16 73.8643 39.53 73.7043 40.21C73.5243 40.93 73.5843 41.4 73.8843 41.62C74.2443 41.88 75.0543 42.14 76.3143 42.4C78.1743 42.72 79.4443 43.03 80.1243 43.33C81.7643 44.07 82.6943 45.26 82.9143 46.9C83.0943 48.24 82.5943 49.4 81.4143 50.38C80.5143 51.12 79.3743 51.63 77.9943 51.91C76.6743 52.21 75.4143 52.24 74.2143 52ZM94.3178 51.79C91.6778 52.43 89.5678 51.9 87.9878 50.2C86.7278 48.9 85.9478 47.23 85.6478 45.19C85.4278 43.59 85.6178 42.07 86.2178 40.63C86.9378 38.79 88.0778 37.43 89.6378 36.55C89.9578 36.37 90.3578 36.24 90.8378 36.16C90.8578 36.16 90.9978 36.15 91.2578 36.13C91.3578 36.11 91.4378 36.09 91.4978 36.07C91.7978 36.01 92.0978 36.04 92.3978 36.16C92.4778 36.16 92.6678 36.17 92.9678 36.19C93.2678 36.19 93.4678 36.2 93.5678 36.22C93.6678 36.22 93.8378 36.24 94.0778 36.28C94.3378 36.3 94.5478 36.33 94.7078 36.37L95.2778 36.58C95.5178 36.66 95.7478 36.76 95.9678 36.88C96.1878 37 96.4278 37.14 96.6878 37.3C97.9878 38.18 98.8878 39.42 99.3878 41.02C99.8878 42.6 100.018 43.88 99.7778 44.86C99.5978 45.94 99.2778 46.95 98.8178 47.89C98.3578 48.81 97.7178 49.63 96.8978 50.35C96.0978 51.07 95.2378 51.55 94.3178 51.79ZM93.3878 48.67C94.2478 48.55 94.9778 48.11 95.5778 47.35C96.1978 46.57 96.5978 45.75 96.7778 44.89C96.9778 44.03 96.9078 43.09 96.5678 42.07C96.2478 41.03 95.7278 40.28 95.0078 39.82C94.7878 39.66 94.6078 39.55 94.4678 39.49C94.3278 39.41 94.1578 39.35 93.9578 39.31C93.7778 39.25 93.6278 39.22 93.5078 39.22C93.4078 39.22 93.1778 39.21 92.8178 39.19C92.4578 39.17 92.1378 39.15 91.8578 39.13C91.7978 39.13 91.7278 39.12 91.6478 39.1C91.4278 39.12 91.3078 39.13 91.2878 39.13L91.0778 39.19C90.1978 39.67 89.5178 40.44 89.0378 41.5C88.5778 42.54 88.4478 43.62 88.6478 44.74C88.8678 46.1 89.3578 47.13 90.1178 47.83C90.9378 48.59 92.0278 48.87 93.3878 48.67ZM105.099 52C104.699 52 104.349 51.87 104.049 51.61C103.749 51.33 103.599 50.96 103.599 50.5C103.599 48.92 103.589 47.56 103.569 46.42C103.529 43.02 103.509 40.07 103.509 37.57C103.509 37.11 103.649 36.75 103.929 36.49C104.209 36.23 104.549 36.1 104.949 36.1C105.369 36.1 105.729 36.24 106.029 36.52C106.349 36.78 106.509 37.15 106.509 37.63V38.56C107.749 36.94 109.379 36.13 111.399 36.13C113.139 36.13 114.469 36.74 115.389 37.96C116.329 39.18 116.799 40.82 116.799 42.88C116.799 45.16 116.769 46.66 116.709 47.38L116.559 49.39L116.469 50.68C116.429 51.08 116.269 51.4 115.989 51.64C115.709 51.88 115.379 52 114.999 52C114.599 52 114.249 51.87 113.949 51.61C113.649 51.33 113.499 50.96 113.499 50.5C113.499 50.18 113.569 49.07 113.709 47.17C113.809 45.87 113.859 44.85 113.859 44.11C113.859 42.41 113.619 41.16 113.139 40.36C112.659 39.54 111.919 39.13 110.919 39.13C110.199 39.13 109.449 39.35 108.669 39.79C107.909 40.23 107.189 40.79 106.509 41.47L106.569 45.73L106.599 50.5C106.599 50.96 106.449 51.33 106.149 51.61C105.849 51.87 105.499 52 105.099 52Z" fill="#FAA75B"/>
</svg>
