<svg width="7" height="7" viewBox="0 0 7 7" fill="none" xmlns="http://www.w3.org/2000/svg">
<path d="M1.02574 6.31954C1.02574 6.45217 0.977258 6.56268 0.880288 6.65112C0.783318 6.73955 0.666954 6.78375 0.531197 6.78375C0.395439 6.78375 0.282276 6.73638 0.191803 6.64164C0.101282 6.54691 0.0560454 6.43322 0.0560454 6.30059C0.0689424 5.71952 0.0592457 4.78798 0.0269548 3.50585C-0.00538461 2.21743 -0.00863332 1.20059 0.0172576 0.455329C0.0237061 0.329011 0.0754393 0.221646 0.172409 0.133223C0.269379 0.0384866 0.382494 -0.00572237 0.511803 0.000591845C0.647561 0.00690606 0.760675 0.0574339 0.851197 0.152171C0.948166 0.246908 0.993403 0.360592 0.986955 0.493223C0.967561 1.16901 0.967561 1.96796 0.986955 2.89007C2.51258 2.83954 3.63098 2.81744 4.34211 2.82375C4.33561 1.9648 4.3518 1.18164 4.39059 0.474276C4.39704 0.341644 4.44877 0.234274 4.54574 0.152171C4.64916 0.0637481 4.76877 0.0226987 4.90453 0.0290129C5.04029 0.0353271 5.15015 0.0890144 5.23423 0.190065C5.3247 0.284802 5.36674 0.398487 5.36029 0.531118C5.32795 1.27007 5.30855 1.89849 5.30211 2.41638C5.30211 3.04164 5.30855 3.74587 5.3215 4.52901C5.34089 5.30585 5.35059 5.89952 5.35059 6.31007C5.35059 6.4427 5.30211 6.55638 5.20514 6.65112C5.11462 6.73955 5.0015 6.78375 4.86574 6.78375C4.72998 6.78375 4.61362 6.73955 4.51665 6.65112C4.42613 6.55638 4.38089 6.4427 4.38089 6.31007C4.38089 6.089 4.3712 5.24271 4.3518 3.77112C3.65362 3.76482 2.53847 3.78689 1.00635 3.83743C1.03219 4.90479 1.03864 5.73217 1.02574 6.31954ZM6.62521 5.84585C6.74157 5.95324 6.79975 6.0827 6.79975 6.23428C6.79975 6.37955 6.74477 6.50584 6.63491 6.61322C6.52499 6.72061 6.39248 6.77428 6.23733 6.77428C6.08218 6.77428 5.94962 6.72061 5.83975 6.61322C5.73629 6.50584 5.6846 6.37955 5.6846 6.23428C5.6846 6.0827 5.73629 5.95324 5.83975 5.84585C5.94962 5.73847 6.08218 5.6848 6.23733 5.6848C6.39248 5.6848 6.52174 5.73847 6.62521 5.84585Z" fill="#FAA75B"/>
</svg>
